<svg xmlns="http://www.w3.org/2000/svg" viewBox="0 0 309.22 114.03"><defs><style>.cls-1{fill:#e5c875;}.cls-2{fill:#baa478;}</style></defs><title>Asset 2</title><g id="Layer_2" data-name="Layer 2"><g id="SecondPage"><circle class="cls-1" cx="104.22" cy="57.02" r="57" transform="translate(-13.54 41.39) rotate(-21.12)"/><path class="cls-2" d="M7.58,31.76s44.21,10.9,87.88,1.31l12.78-1.31s14.38-13.52-25.57-9.59c0,0-26.63-20.06-42.61-5.67,0,0-42.61-14.83-39.95,0C.12,16.49-.41,30,7.58,31.76Z"/><path class="cls-2" d="M271.22,50.05a84.66,84.66,0,0,0-28,0s-6.53-11.17-24-12.85V37c-1,0-2,0-3,0s-2,0-3,0v.19c-17.47,1.68-24,12.85-24,12.85a84.66,84.66,0,0,0-28,0c-21,3.26-38,18.92-38,18.92s18,11.09,86,13h14c68-2,86-13,86-13S292.22,53.31,271.22,50.05Z"/></g></g></svg>