<svg xmlns="http://www.w3.org/2000/svg" viewBox="0 0 78.78 100"><defs><style>.cls-1{fill:#a08a58;}</style></defs><title>Asset 5</title><g id="Layer_2" data-name="Layer 2"><g id="ThirdPage"><path class="cls-1" d="M33.54,100H45.39V70.37a14.89,14.89,0,0,0,17.78,0s11.11-10.37,2.22-20c0,0,20-5.19,11.11-24.44,0,0-5.19-6.67-13.33-7.41,0,0-.74-16.3-15.56-18.52,0,0-10.37.74-14.07,6.67,0,0-12.59-5.19-22.22,3,0,0-5.19,9.63-2.22,16.3,0,0-12.59,5.19-8.15,19.26,0,0,3.7,11.85,12.59,9.63,0,0-3,11.11,1.48,14.07,0,0,3,7.41,14.07,5.93,0,0,3.7-.74,4.44-2.22"/></g></g></svg>