<?xml version="1.0" encoding="utf-8"?>
<!-- Generator: Adobe Illustrator 16.0.0, SVG Export Plug-In . SVG Version: 6.00 Build 0)  -->
<!DOCTYPE svg PUBLIC "-//W3C//DTD SVG 1.1//EN" "http://www.w3.org/Graphics/SVG/1.1/DTD/svg11.dtd">
<svg version="1.1" id="Layer_1" xmlns="http://www.w3.org/2000/svg" xmlns:xlink="http://www.w3.org/1999/xlink" x="0px" y="0px"
	 width="100%" height="100%" viewBox="0 90.167 600 55.333" enable-background="new 0 90.167 600 55.333" xml:space="preserve"
	>
<title>Asset 4</title>
<g id="Layer_2">
	<g id="ThirdPage">
		<g id="Layer_24">
			<path fill="#0BAA47" d="M0.22,136.139l73.572-33.101c0,0,97.95,26.354,104.1,26.354h-3.953L300,130.71l222.694-27.672
				L600,146.962L0,146.522"/>
		</g>
	</g>
</g>
<g id="Layer_2_1_">
	<g id="ThirdPage_1_">
		<path fill="#A08A58" d="M57.401,136.668h5.265v-11.853c2.345,1.57,5.556,1.57,7.9,0c0,0,4.936-4.148,0.986-8
			c0,0,8.886-2.076,4.936-9.776c0,0-2.306-2.668-5.922-2.964c0,0-0.329-6.52-6.914-7.408c0,0-4.607,0.296-6.251,2.667
			c0,0-5.594-2.076-9.873,1.2c0,0-2.306,3.852-0.986,6.52c0,0-5.594,2.076-3.621,7.704c0,0,1.644,4.74,5.594,3.852
			c0,0-1.333,4.444,0.657,5.627c0,0,1.333,2.965,6.251,2.372c0,0,1.644-0.296,1.973-0.888"/>
	</g>
</g>
<g id="Layer_2_2_">
	<g id="ThirdPage_2_">
		<path fill="#A08A58" d="M132.625,106.88c1.719-2.46,1.643-6.171-0.479-9.459c-2.811-4.334-8.129-6.28-11.894-4.37
			c-2.279-3.224-7.884-3.861-12.678-1.392c-3.881,1.997-6.049,5.425-5.682,8.44c-1.713,2.333-2.111,5.007-0.765,7.154
			c-2.856,3.415-3.116,7.694-0.382,10.132c3.085,2.751,8.797,2.105,12.801-1.451c0.285-0.255,0.551-0.519,0.801-0.787
			c-2.815,6.126-7.227,17.004-4.08,18.996c3.57,2.272,6.12,0,6.12,0v-19.1c0.234,1.408,0.768,2.763,1.57,3.993
			c2.815,4.351,8.16,6.298,11.944,4.351c2.938-1.514,4.08-4.933,3.091-8.426C134.196,112.724,134.135,109.708,132.625,106.88z
			 M116.815,106.88c0,0.059,0,0.114,0,0.173l-0.04-0.123L116.815,106.88z M117.019,109.84c0,0.104,0.062,0.209,0.092,0.314
			c-0.086,0.154-0.158,0.313-0.234,0.478c0.062-0.276,0.109-0.546,0.143-0.81V109.84z M116.372,112.114l0.066-0.159
			c0,0.104-0.046,0.205-0.066,0.313V112.114z"/>
	</g>
</g>
<g id="Layer_2_3_">
	<g id="ThirdPage_3_">
		<path fill="#A08A58" d="M153.481,128.122l2.265-0.452l-0.899-5.766c1.128,0.563,2.51,0.287,3.4-0.678c0,0,1.809-2.441-0.183-3.977
			c0,0,3.666-1.772,1.382-5.179c0,0-1.195-1.1-2.773-0.934c0,0-0.637-3.144-3.538-3.011c0,0-1.96,0.539-2.487,1.834
			c0,0-2.565-0.53-4.158,1.431c0,0-0.7,2.072,0.071,3.256c0,0-2.25,1.49-0.974,4.059c0,0,1.067,2.165,2.699,1.394
			c0,0-0.236,2.277,0.71,2.682c0,0,0.798,1.328,2.87,0.618c0,0,0.685-0.285,0.782-0.601"/>
	</g>
</g>
<g id="Layer_2_4_">
	<g id="ThirdPage_4_">
		<path fill="#A08A58" d="M386.401,130.168h5.265v-11.853c2.345,1.57,5.556,1.57,7.9,0c0,0,4.936-4.147,0.986-8
			c0,0,8.885-2.076,4.936-9.776c0,0-2.307-2.667-5.922-2.963c0,0-0.33-6.52-6.914-7.408c0,0-4.607,0.296-6.251,2.667
			c0,0-5.594-2.076-9.872,1.2c0,0-2.307,3.852-0.986,6.52c0,0-5.594,2.076-3.621,7.704c0,0,1.644,4.74,5.594,3.852
			c0,0-1.333,4.444,0.657,5.628c0,0,1.333,2.965,6.251,2.372c0,0,1.645-0.296,1.973-0.888"/>
	</g>
</g>
<g id="Layer_2_5_">
	<g id="ThirdPage_5_">
		<path fill="#A08A58" d="M428.448,104.543c0.429-1.247-0.029-2.832-1.286-4.008c-1.661-1.548-4.087-1.794-5.426-0.556
			c-1.314-1.131-3.708-0.783-5.408,0.809c-1.378,1.288-1.88,3-1.382,4.253c-0.44,1.192-0.297,2.384,0.506,3.156
			c-0.789,1.783-0.404,3.648,1.009,4.392c1.592,0.839,3.884-0.072,5.132-2.043c0.089-0.141,0.168-0.284,0.241-0.426
			c-0.462,2.943-1.036,8.102,0.496,8.607c1.738,0.58,2.533-0.679,2.533-0.679l-2.197-8.199c0.259,0.579,0.636,1.101,1.109,1.54
			c1.666,1.556,4.103,1.799,5.445,0.543c1.041-0.976,1.121-2.571,0.31-3.96C429.771,106.877,429.399,105.59,428.448,104.543z
			 M421.904,106.297c0.007,0.025,0.013,0.049,0.02,0.074l-0.031-0.048L421.904,106.297z M422.329,107.544
			c0.013,0.045,0.049,0.083,0.074,0.125c-0.018,0.076-0.03,0.152-0.042,0.23c-0.007-0.125-0.018-0.247-0.034-0.363L422.329,107.544z
			 M422.322,108.593l0.009-0.076c0.013,0.045,0.005,0.093,0.009,0.142L422.322,108.593z"/>
	</g>
</g>
</svg>
