<svg xmlns="http://www.w3.org/2000/svg" viewBox="0 0 68.63 98.96"><defs><style>.cls-1{fill:#a08a58;}</style></defs><title>Asset 6</title><g id="Layer_2" data-name="Layer 2"><g id="ThirdPage"><path class="cls-1" d="M66.26,36.78c3.37-5.41,3.22-13.57-.94-20.8C59.81,6.45,49.38,2.17,42,6.37,37.53-.72,26.54-2.12,17.14,3.31,9.53,7.7,5.28,15.24,6,21.87,2.64,27,1.86,32.88,4.5,37.6c-5.6,7.51-6.11,16.92-.75,22.28C9.8,65.93,21,64.51,28.85,56.69c.56-.56,1.08-1.14,1.57-1.73-5.52,13.47-14.17,37.39-8,41.77,7,5,12,0,12,0v-42a24.67,24.67,0,0,0,3.08,8.78c5.52,9.57,16,13.85,23.42,9.57,5.76-3.33,8-10.85,6.06-18.53C69.34,49.63,69.22,43,66.26,36.78Zm-31,0c0,.13,0,.25,0,.38l-.08-.27Zm.4,6.51c0,.23.12.46.18.69-.17.34-.31.69-.46,1.05Q35.56,44.12,35.66,43.25Zm-1.27,5,.13-.35c0,.23-.09.45-.13.69Z"/></g></g></svg>